<?xml version="1.0" encoding="utf-8"?>
<!-- Generator: Adobe Illustrator 22.0.1, SVG Export Plug-In . SVG Version: 6.00 Build 0)  -->
<svg version="1.1" id="Layer_1" xmlns="http://www.w3.org/2000/svg" xmlns:xlink="http://www.w3.org/1999/xlink" x="0px" y="0px"
	 viewBox="0 0 512 512" style="enable-background:new 0 0 512 512;" xml:space="preserve">
<style type="text/css">
	.st0{fill:#F2EFF4;}
	.st1{fill:#785589;}
</style>
<path class="st0" d="M461.8,341.7C461.8,341.7,461.8,341.7,461.8,341.7c-7.8-0.1-35.4-0.9-46.2-1.3c-17.6-0.6-40.1-1.5-66.9-2.6
	c-24-1-47.5-9.9-66.1-25.1l-69.5-56.5c-1.9-1.5-2.4-4.1-1.2-6.3c0.1-0.1,9.2-18.2-0.4-51.6c-6-20.8-21.3-38.7-33.1-50.1
	c-2-1.9-2-5.1-0.1-7.1c1.9-2,5.1-2,7.1-0.1c12.7,12.2,29.2,31.7,35.8,54.5c8.2,28.7,3.9,47.5,1.2,55.2l66.6,54.1
	c17,13.8,38.4,21.9,60.2,22.8c26.8,1.1,49.3,2,66.8,2.6c10.8,0.4,38.3,1.2,46,1.3c2.8,0,5,2.3,4.9,5.1
	C466.8,339.5,464.6,341.7,461.8,341.7L461.8,341.7z"/>
<path class="st0" d="M451.4,320.5c-0.1,0-0.2,0-0.3,0l-104.1-7.1c-14.4-1-27.9-6.3-39.1-15.4l-65.2-53c-1.9-1.5-2.4-4.1-1.2-6.3
	c0.1-0.1,9.2-18.2-0.4-51.6c-6-20.7-21.2-38.6-33-50l-9-7.8c-2.1-1.8-2.3-5-0.5-7.1c1.8-2.1,5-2.3,7.1-0.5l9.1,7.9
	c0.1,0.1,0.1,0.1,0.2,0.2c12.7,12.2,29.2,31.7,35.8,54.5c8.2,28.7,3.9,47.5,1.2,55.2l62.3,50.6c9.6,7.8,21.1,12.3,33.5,13.2
	l104.1,7.1c2.8,0.2,4.8,2.6,4.6,5.3C456.2,318.5,454,320.5,451.4,320.5L451.4,320.5z"/>
<path class="st1" d="M465.7,346c-2.8,2.2-6.4,3.6-10.3,3.6h-95.9c-32.7,0-64.4-10.9-90.1-31L120.6,202.5c-2.8-2.2-5-5-6.5-8
	c-8.2,10.1-6.6,25,3.8,33l148.7,116.1c25.8,20.1,57.5,31,90.1,31h95.9c11.5,0,19.5-11.4,15.6-22.2
	C467.4,350.5,466.6,348.3,465.7,346z"/>
<path class="st0" d="M258.7,389.2c-0.1,0-0.3,0-0.5,0l-3.8-0.2c-1.1-0.1-2.1-0.3-3.1-0.8L60.7,293.4c-2.3-1.2-4-3.4-4.3-6
	s0.5-5.2,2.4-7l19.7-18.6c2.7-2.5,6.7-2.9,9.8-0.9l174.8,113.6c3.1,2,4.4,5.7,3.2,9.2C265.2,387,262.2,389.2,258.7,389.2
	L258.7,389.2z M67.7,285.7l171.5,85.2l-155-100.8L67.7,285.7z"/>
<path class="st0" d="M205.1,399.3c-0.6,0-1.2-0.1-1.8-0.2L54.1,364.7c-2.8-0.6-5-2.7-5.9-5.5c-0.8-2.7-0.1-5.7,1.9-7.8l18.2-19.2
	c2.3-2.4,5.7-3.1,8.8-1.9l131,53.6c3.6,1.5,5.6,5.1,4.8,8.9C212.2,396.7,209,399.3,205.1,399.3L205.1,399.3z M59.8,355.8l121.6,28
	L74.6,340.1L59.8,355.8z"/>
<path class="st0" d="M144.9,118.8h-46c-2.8,0-5-2.2-5-5s2.2-5,5-5h46c2.8,0,5,2.2,5,5S147.6,118.8,144.9,118.8z"/>
<path class="st0" d="M121.9,145.2h-46c-2.8,0-5-2.2-5-5s2.2-5,5-5h46c2.8,0,5,2.2,5,5S124.6,145.2,121.9,145.2z"/>
<path class="st0" d="M98.9,171.7h-46c-2.8,0-5-2.2-5-5s2.2-5,5-5h46c2.8,0,5,2.2,5,5S101.6,171.7,98.9,171.7z"/>
<path class="st1" d="M457.3,315.7c-10.1-18.8-28-22.6-45.3-26.4c-11.7-2.5-23.8-5.1-33.7-12.4c-10.2-7.6-23.4-33.1-34.5-58.7
	c0-0.1,0-0.3-0.1-0.4c-0.1-0.4-0.3-0.8-0.6-1.1c-2.7-6.3-5.3-12.6-7.7-18.6c0,0,0,0,0,0c0,0,0,0,0,0c-4.9-12.3-9-23.4-11.5-30.8
	c-0.6-1.9-2.3-3.2-4.3-3.3c-0.7-0.1-68.7-6.7-77.2-60.9c-0.3-2-1.8-3.6-3.7-4.1c-0.8-0.2-19.2-4.7-36.9,0
	c-10.2,2.7-40.8,33.6-91,91.8c-5.1,5.9-7.5,13.5-6.7,21.2c0.8,7.8,4.6,14.7,10.8,19.5l148.7,116.1c26.5,20.7,59.6,32.1,93.2,32.1
	h95.9c7,0,13.6-3.4,17.6-9.2c4-5.7,5-13.1,2.6-19.7C468.3,338.3,463.1,326.5,457.3,315.7L457.3,315.7z M462,364.8
	c-2.2,3.1-5.6,4.9-9.5,4.9h-95.9c-31.4,0-62.3-10.6-87.1-30L120.9,223.6c-4-3.1-6.5-7.6-7-12.6c-0.5-5,1.1-9.9,4.4-13.7
	c54.3-62.9,80-87.1,86-88.7c5.1-1.3,10.3-1.8,15-1.8c5.8,0,10.8,0.7,13.8,1.2c10.5,51.5,67.9,63.3,82.3,65.5
	c1.5,4.3,4.6,12.7,8.7,23.1l-24.9,8.4c-2.6,0.9-4,3.7-3.2,6.3c0.7,2.1,2.6,3.4,4.7,3.4c0.5,0,1.1-0.1,1.6-0.3l25.5-8.5
	c1.4,3.4,2.8,6.9,4.4,10.5l-24.7,8.3c-2.6,0.9-4,3.7-3.2,6.3c0.7,2.1,2.6,3.4,4.7,3.4c0.5,0,1.1-0.1,1.6-0.3l25.5-8.5
	c1.5,3.5,3.1,6.9,4.7,10.4l-25.1,8.4c-2.6,0.9-4,3.7-3.2,6.3c0.7,2.1,2.6,3.4,4.7,3.4c0.5,0,1.1-0.1,1.6-0.3l26.3-8.8
	c1.7,3.5,3.5,6.9,5.3,10.2l-26.5,8.9c-2.6,0.9-4,3.7-3.2,6.3c0.7,2.1,2.6,3.4,4.7,3.4c0.5,0,1.1-0.1,1.6-0.3l28.4-9.5
	c5.7,9.3,11.4,16.9,16.7,20.8c11.6,8.6,24.8,11.4,37.5,14.2c16.5,3.6,30.7,6.6,38.6,21.3c5.6,10.4,10.6,21.7,15,33.8
	C464.8,357.8,464.2,361.7,462,364.8L462,364.8z"/>
</svg>
